<svg fill="none" viewBox="0 0 54 58" xmlns="http://www.w3.org/2000/svg" class="relative w-auto h-[2.6875rem] md:h-[3.5625rem]" aria-hidden="true" focusable="false"><path d="M53.2984 26.6841C53.2984 28.6156 52.7066 30.4091 51.6953 31.8938L48.7371 36.3298C48.3795 36.8856 47.9635 37.4002 47.4977 37.8659C45.8209 39.5419 43.5051 40.5788 40.9475 40.5788H40.42C40.7614 41.5446 40.9475 42.5841 40.9475 43.6665C40.9475 45.5981 40.3557 47.3915 39.3444 48.8762L36.3862 53.3122C36.0286 53.868 35.6126 54.3826 35.1469 54.8484C33.4701 56.5243 31.1543 57.5613 28.5966 57.5613H10.0703C4.95411 57.5613 0.807129 53.4143 0.807129 48.2981C0.807129 46.3666 1.39894 44.5731 2.41017 43.0885L5.06304 39.1104C2.5028 37.4619 0.807129 34.5869 0.807129 31.3157C0.807129 29.3841 1.39894 27.5907 2.41017 26.106L5.06304 22.128C2.5028 20.4795 0.807129 17.6045 0.807129 14.3332C0.807129 12.4017 1.39894 10.6082 2.41017 9.12355L5.36838 4.68752C5.72604 4.13173 6.14202 3.61711 6.60775 3.15138C8.28456 1.47544 10.6003 0.438477 13.158 0.438477H37.8598C42.9759 0.438477 47.1229 4.58545 47.1229 9.70163C47.1229 11.6332 46.5311 13.4266 45.5199 14.9113L43.8465 17.4209H44.0352C49.1514 17.4209 53.2984 21.5679 53.2984 26.6841Z" fill="#161616"></path><path d="M13.1583 1.98242H37.86C42.1236 1.98242 45.5793 5.43809 45.5793 9.70172C45.5793 13.9653 42.1236 17.421 37.86 17.421H13.1583C8.89464 17.421 5.43896 13.9653 5.43896 9.70172C5.43896 5.43809 8.89464 1.98242 13.1583 1.98242Z" fill="#F8F8F8"></path><path d="M13.1583 18.9648H44.0355C48.2991 18.9648 51.7548 22.4205 51.7548 26.6841C51.7548 30.9478 48.2991 34.4034 44.0355 34.4034H13.1583C8.89464 34.4034 5.43896 30.9478 5.43896 26.6841C5.43896 22.4205 8.89464 18.9648 13.1583 18.9648Z" fill="#F8F8F8"></path><path d="M19.2684 22.0527H16.1686L12.6606 31.3159H15.389L15.9388 29.6657H19.4914L20.048 31.3159H22.7764L19.2684 22.0527ZM16.5306 27.8911L17.7048 24.3685L18.8927 27.8911H16.5306Z" fill="#161616"></path><path d="M30.1459 22.0527H27.0471L23.5391 31.3159H26.2674L26.8172 29.6657H30.3698L30.9264 31.3159H33.6548L30.1459 22.0527ZM27.409 27.8911L28.5832 24.3685L29.7711 27.8911H27.409Z" fill="#161616"></path><path d="M41.0237 22.0527H37.9249L34.416 31.3159H37.1444L37.6941 29.6657H41.2476L41.8042 31.3159H44.5326L41.0237 22.0527ZM38.286 27.8911L39.4601 24.3685L40.6489 27.8911H38.286Z" fill="#161616"></path><path d="M13.1583 35.9473H31.6846C35.9482 35.9473 39.4039 39.4029 39.4039 43.6666C39.4039 47.9302 35.9482 51.3859 31.6846 51.3859H13.1583C8.89464 51.3859 5.43896 47.9302 5.43896 43.6666C5.43896 39.4029 8.89464 35.9473 13.1583 35.9473Z" fill="#F8F8F8"></path><path d="M26.5953 48.5136C25.6003 48.5136 24.7212 48.318 23.9561 47.9261C23.1911 47.5341 22.5941 46.9723 22.1652 46.2381C21.7364 45.5048 21.522 44.6282 21.522 43.6084C21.522 42.5886 21.7484 41.7746 22.203 41.0533C22.6567 40.332 23.2597 39.7728 24.0127 39.3748C24.7649 38.9768 25.5883 38.7778 26.4838 38.7778C27.5036 38.7778 28.3767 39.0171 29.104 39.4957C29.8314 39.9743 30.382 40.633 30.7551 41.4727C31.1282 42.3124 31.2835 43.279 31.2217 44.3735H24.3764C24.4261 45.0202 24.6654 45.5048 25.0943 45.8281C25.5231 46.1515 25.9992 46.3127 26.5215 46.3127C26.9564 46.3127 27.3329 46.2475 27.6502 46.1172C27.9676 45.9868 28.2129 45.8221 28.387 45.6231L30.6436 46.444C30.159 47.1524 29.5526 47.6748 28.8253 48.011C28.098 48.3463 27.3543 48.5144 26.5961 48.5144H26.5953V48.5136ZM24.3755 42.6941H28.5911C28.5783 42.0971 28.3733 41.6468 27.9753 41.3415C27.5773 41.037 27.1047 40.8843 26.5575 40.8843C26.0103 40.8843 25.5472 41.0276 25.1303 41.3132C24.7135 41.5997 24.4622 42.0594 24.3747 42.6932L24.3755 42.6941Z" fill="#161616"></path><path d="M15.0625 48.2956V39.035H17.3028L17.8071 40.7341C18.0936 39.9871 18.4856 39.4647 18.9839 39.1654C19.4814 38.8669 20.0852 38.7357 20.7954 38.7734V41.6115C20.6461 41.5867 20.5149 41.5712 20.4034 41.5652C20.291 41.5592 20.1667 41.5558 20.0303 41.5558C19.3459 41.5558 18.8192 41.7179 18.4521 42.0412C18.085 42.3655 17.9015 42.8938 17.9015 43.628V48.2956H15.0625Z" fill="#161616"></path><path d="M16.246 14.3354L13.9302 5.07227H16.7314L18.132 11.3472L19.3277 5.07227H22.0166L23.2122 11.3472L24.6128 5.07227H27.4329L25.1172 14.3354H22.0166L20.6726 7.68653L19.3457 14.3354H16.246Z" fill="#161616"></path><path d="M32.9454 14.5531C31.9504 14.5531 31.0713 14.3576 30.3062 13.9656C29.5412 13.5736 28.9442 13.0118 28.5153 12.2777C28.0865 11.5443 27.8721 10.6678 27.8721 9.64795C27.8721 8.62814 28.0985 7.81418 28.5531 7.09286C29.0068 6.37153 29.6098 5.81231 30.362 5.41434C31.1142 5.01637 31.9376 4.81738 32.833 4.81738C33.8528 4.81738 34.726 5.05668 35.4533 5.53528C36.1806 6.01387 36.7313 6.67259 37.1044 7.51228C37.4775 8.35196 37.6327 9.31859 37.5709 10.413H30.7256C30.7754 11.0597 31.0147 11.5443 31.4435 11.8677C31.8724 12.191 32.3484 12.3523 32.8707 12.3523C33.3056 12.3523 33.6821 12.2871 33.9995 12.1567C34.3168 12.0263 34.5621 11.8617 34.7362 11.6627L36.9929 12.4835C36.5083 13.192 35.9019 13.7143 35.1745 14.0505C34.4472 14.3859 33.7036 14.554 32.9454 14.554V14.5531ZM30.7256 8.73364H34.9412C34.9284 8.13668 34.7234 7.68639 34.3254 7.38105C33.9274 7.07656 33.4548 6.92389 32.9076 6.92389C32.3604 6.92389 31.8973 7.06713 31.4804 7.35274C31.0636 7.63921 30.8123 8.09894 30.7248 8.73278H30.7256V8.73364Z" fill="#161616"></path></svg>